<svg width="34" height="33" viewBox="0 0 34 33" fill="none" xmlns="http://www.w3.org/2000/svg">
<path d="M1 1H4.14497C5.54892 1 6.25089 1 6.77938 1.36608C7.30786 1.73216 7.52984 2.37218 7.97382 3.65221L9.0719 6.8182" stroke="#43314B" stroke-width="2" stroke-linecap="round"/>
<path d="M29.2514 26.2118H10.1834C9.88837 26.2118 9.74088 26.2118 9.62896 26.1997C8.44322 26.0721 7.63094 24.989 7.87996 23.8676C7.90345 23.7617 7.95011 23.6273 8.0434 23.3583C8.14698 23.0596 8.19876 22.9103 8.25599 22.7786C8.84177 21.4296 10.167 20.5115 11.6839 20.404C11.8321 20.3936 11.9958 20.3936 12.3234 20.3936H23.1975" stroke="#43314B" stroke-width="2" stroke-linecap="round" stroke-linejoin="round"/>
<path d="M22.5492 20.3942H16.4123C13.8308 20.3942 12.5401 20.3942 11.5292 19.7536C10.5184 19.113 10.0099 17.9728 8.99303 15.6925L8.65235 14.9285C7.01882 11.2653 6.20205 9.4337 7.09926 8.12602C7.99645 6.81836 10.0699 6.81836 14.2168 6.81836H24.8735C29.5128 6.81836 31.8325 6.81836 32.7075 8.26731C33.5825 9.71625 32.4314 11.6519 30.1297 15.5232L29.5576 16.4855C28.4235 18.3925 27.8566 19.3461 26.9171 19.8701C25.9775 20.3942 24.8347 20.3942 22.5492 20.3942Z" stroke="#43314B" stroke-width="2" stroke-linecap="round"/>
<path d="M28.2416 33.0004C29.3561 33.0004 30.2596 32.1321 30.2596 31.061C30.2596 29.9899 29.3561 29.1216 28.2416 29.1216C27.1271 29.1216 26.2236 29.9899 26.2236 31.061C26.2236 32.1321 27.1271 33.0004 28.2416 33.0004Z" fill="#43314B"/>
<path d="M12.0995 32.9999C13.214 32.9999 14.1175 32.1316 14.1175 31.0605C14.1175 29.9894 13.214 29.1211 12.0995 29.1211C10.985 29.1211 10.0815 29.9894 10.0815 31.0605C10.0815 32.1316 10.985 32.9999 12.0995 32.9999Z" fill="#43314B"/>
</svg>
