<?xml version="1.0" encoding="UTF-8"?>
<!DOCTYPE svg PUBLIC "-//W3C//DTD SVG 1.1//EN" "http://www.w3.org/Graphics/SVG/1.1/DTD/svg11.dtd">
<!-- Creator: CorelDRAW 2018 (64-Bit Evaluation Version) -->
<svg xmlns="http://www.w3.org/2000/svg" xml:space="preserve" width="5.4186mm" height="5.4186mm" version="1.1" style="shape-rendering:geometricPrecision; text-rendering:geometricPrecision; image-rendering:optimizeQuality; fill-rule:evenodd; clip-rule:evenodd"
viewBox="0 0 541.86 541.86"
 xmlns:xlink="http://www.w3.org/1999/xlink">
 <defs>
  <style type="text/css">
   <![CDATA[
    .fil0 {fill:#43314B}
   ]]>
  </style>
 </defs>
 <g id="Layer_x0020_1">
  <metadata id="CorelCorpID_0Corel-Layer"/>
  <path class="fil0" d="M53.03 78.31c9.32,-4.42 43.59,-1.79 51.73,-1.79l4.87 0.14 5.12 0.43c3.62,0.55 5.9,0.96 9.45,1.87 1.49,0.44 3,1.02 4.47,1.69 1.41,0.66 2.79,1.42 4.03,2.24 1.29,0.86 2.53,1.84 3.65,2.91 1.01,0.98 2,2.07 2.88,3.28l1.94 3.15c0.88,1.79 1.71,3.27 2.16,5.21 7.57,27.78 15.03,54.36 22.47,80.89l2.38 8.49c8.17,29.15 16.38,58.42 24.32,87.71l1.09 4.06 206.41 -0.12 4.34 -1.07c7.8,-12.55 13.88,-25.65 20.05,-38.99 8.58,-19.31 18.22,-38.7 27.11,-57.99 3.46,-7.73 6.75,-15.36 9.65,-22.58 2.86,-7.08 5.3,-13.69 7.12,-19.48 0.73,-2.58 1.41,-5.59 2.07,-8.59l-274.08 -0.22c-4.16,-0.08 -8.29,-0.11 -12.44,-0.33 -0.8,0.26 -1.69,0.27 -2.53,0 -5.61,-2.51 -8.81,-6.61 -9.5,-12.73l0.07 -2.21 0.48 -2.14 0.76 -1.85c2.18,-3.74 4.43,-5.46 8.63,-6.72 0.65,-0.16 1.49,-0.16 2.85,-0.11l6.79 0.1 31.39 -0.17 193.68 -0.25 51.35 0.16 4.08 0.29c1.2,0.15 2.47,0.39 3.8,0.76l4.16 1.43c1.57,0.66 3.06,1.44 4.4,2.3 1.22,0.78 2.38,1.69 3.46,2.71l0.3 0.26c1.07,1.05 2.05,2.2 2.88,3.41l0.09 0.12c0.84,1.23 1.61,2.62 2.23,4.1 0.63,1.47 1.15,3.07 1.53,4.73 0.38,1.65 0.64,3.37 0.76,5.11 0.12,1.93 0.12,3.91 -0.03,5.92 -0.14,2.04 -0.42,4.12 -0.82,6.18 -3.99,20.44 -28.51,71.59 -44.7,105.35 -9.89,23.07 -19.04,54.29 -47.21,58.47 -6.4,0.52 -12.47,0.49 -18.93,0.59l-157.36 0.07c-9.08,-0.14 -17.67,-0.61 -26.78,-1.11 5,7.7 6.73,11.85 13.54,17.22 4.46,2.49 5.76,2.85 10.77,3.93 27.65,2.05 56.84,1.11 86.01,0.17 31.23,-1.01 62.48,-2.01 91.94,0.59 0.6,0.01 1.2,0.14 1.77,0.42 2.09,1.02 3.6,2.11 4.82,3.56 1.18,1.39 1.97,2.99 2.69,5.04 1.02,4.21 0.13,9.82 -3.32,12.78 -1.49,1.34 -1.62,1.46 -3.29,2.47l-1.81 0.86c-0.54,0.25 -1.15,0.39 -1.78,0.39l-111.22 -0.21 -55.23 0.19c-4.69,0.07 -9.21,0.13 -13.59,-0.28 -4.64,-0.43 -9.2,-1.39 -13.72,-3.35 -18.39,-9.2 -27.62,-22.73 -33.72,-42.06 -4.05,-13.75 -9.45,-34.52 -15.37,-57.42l-0.25 -0.92c-6.61,-25.58 -13.93,-53.86 -21.09,-78.76 -6.99,-24.32 -13.74,-44.97 -19.27,-55.65 -1.11,-1.9 -1.93,-2.89 -3.32,-4.53l-1.88 -1.66c-1.72,-1.13 -2.31,-1.42 -4.19,-2.29l-2.26 -0.68c-5.97,-1.09 -12.27,-1.08 -18.32,-1.11 -9.33,-0.06 -19.18,0.26 -28.47,-0.17 -2.71,-0.1 -4.06,-0.42 -6.45,-1.49 -1.11,-0.74 -1.64,-1.13 -2.53,-2.12 -2.13,-2.4 -2.71,-3.04 -3.51,-6.46 -1.02,-5.86 1.15,-11.24 6.43,-14.14zm350.46 293.92c23.65,5.34 39.9,21.39 39.9,46.5 -0.05,2.95 -0.11,4.86 -0.32,6.56 -0.22,1.81 -0.59,3.61 -1.29,6.24 -5.31,20.29 -22.75,32 -42.97,33.65 -44.39,0.95 -65.35,-48.72 -34.61,-80.45 0.81,-0.85 2.6,-2.27 3.97,-3.35 2.46,-2.05 5.71,-3.66 8.55,-5.16l3.88 -1.72c1.34,-0.51 2.74,-0.94 4.14,-1.23 6.15,-1.03 12.5,-2.03 18.75,-1.04zm-19.21 29.03l-2.22 1.86c-1.22,1.18 -2.17,2.28 -2.98,3.42 -0.8,1.12 -1.52,2.47 -2.3,4.18l-1.09 3.8c-0.73,4.97 -0.42,7.52 1.19,12.27 1.58,3.32 3.23,5.74 5.25,7.6 2.02,1.85 4.55,3.3 7.83,4.62 1.23,0.34 2.83,0.85 4.1,0.92 1.23,0.13 2.21,0.1 3.57,0.06 0.87,-0.03 2.19,0.01 2.98,-0.23 3.47,-1.09 4.98,-1.57 8.11,-3.56l1.82 -1.49 1.74 -1.72 2.92 -3.99 1.19 -2.49c0.57,-1.62 0.97,-2.82 1.3,-4.5l0.1 -1.91 -0.14 -5 -1 -3.43 -1.96 -4.08 -2 -2.66 -2.31 -2.41 -2.25 -1.67c-2.52,-1.38 -3.18,-1.66 -5.88,-2.66l-3.09 -0.61 -3.3 -0.21 -3.2 0.32c-2.74,0.69 -3.31,0.91 -5.93,2.03l-2.45 1.54zm-165.99 -29.25c3.48,0.05 7.29,-0.11 10.75,0.42 2.71,0.53 5.88,1.17 8.7,2.09 2.77,1.04 3.71,1.53 6.39,2.98l4.53 2.96c26.33,20.2 26.86,56.67 0.08,76.56 -2.2,1.43 -4.01,2.5 -5.87,3.43 -1.89,0.95 -3.82,1.76 -6.22,2.68 -5.68,1.72 -8.23,1.93 -14.29,2.2l-4.68 -0.1 -4.64 -0.57 -5.5 -1.14c-5.29,-1.73 -9.57,-3.92 -13.42,-6.75 -3.78,-2.79 -7.1,-6.18 -10.48,-10.37 -21.09,-30.27 -1.17,-74.39 34.65,-74.39zm-2.88 26.25l-2.61 1.01c-2.66,1.19 -4.71,2.7 -6.39,4.51l-0.15 0.17c-1.75,1.9 -3.21,4.23 -4.64,6.88l-1.21 4.31 -0.02 6.87c0.76,2.71 1.27,4.43 1.96,5.91 0.68,1.44 1.74,2.9 3.7,5.3 1.86,1.86 2.89,2.68 5.09,4.15 3.73,1.93 5.65,2.31 10.01,2.63l4.23 -0.16 4.2 -1.31 2.08 -1.04 4.09 -2.93 1.69 -1.74c1.74,-2.21 2.83,-3.83 3.55,-5.43 0.72,-1.58 1.21,-3.41 1.76,-5.99l0 -5.38 -1.24 -4.87 -1.01 -2.19 -1.18 -2.02 -1.45 -1.93 -2.07 -2.12 -2.4 -1.91 -2.77 -1.55 -2.98 -1.11c-2.01,-0.59 -4.09,-0.9 -6.15,-0.9l-2.99 0.2 -3.1 0.64z"/>
 </g>
</svg>
