<svg width="404" height="44" viewBox="0 0 404 44" fill="none" xmlns="http://www.w3.org/2000/svg">
<path d="M0 1.05225H7.60761L25.7574 28.6939V1.05225H33.7365V43.0553H26.0686L7.97908 15.5012V43.0553H0V1.05225Z" fill="#462F56"/>
<path d="M65.5137 11.9925H73.3158V43.0566H65.5137V39.7507C63.9879 41.1937 62.4538 42.2275 60.917 42.8613C59.3828 43.4946 57.7099 43.8165 55.921 43.8165C51.8818 43.8165 48.401 42.2668 45.4577 39.1562C42.5144 36.0561 41.0488 32.1944 41.0488 27.5828C41.0488 22.7957 42.4746 18.8769 45.322 15.8143C48.167 12.7625 51.6181 11.2319 55.6846 11.2319C57.5635 11.2319 59.3136 11.5837 60.9567 12.2752C62.5999 12.9679 64.1153 14.0213 65.5137 15.4048V11.9925ZM57.29 18.3693C54.8649 18.3693 52.8496 19.2172 51.2567 20.9234C49.6533 22.6201 48.8509 24.8042 48.8509 27.4656C48.8509 30.1472 49.6616 32.3508 51.2947 34.0862C52.929 35.8115 54.9338 36.6791 57.3194 36.6791C59.7733 36.6791 61.8179 35.8312 63.432 34.125C65.054 32.429 65.8651 30.1966 65.8651 27.4371C65.8651 24.7364 65.054 22.5517 63.432 20.8747C61.8179 19.2082 59.7633 18.3693 57.29 18.3693Z" fill="#462F56"/>
<path d="M82.1287 0.525879H89.9324V11.9915H94.5672V18.7198H89.9324V43.0556H82.1287V18.7198H78.1377V11.9915H82.1287V0.525879Z" fill="#462F56"/>
<path d="M98.7803 11.9907H106.701V26.9275C106.701 29.8329 106.906 31.8522 107.308 32.9824C107.709 34.1136 108.353 34.9909 109.244 35.6247C110.134 36.2496 111.238 36.5615 112.54 36.5615C113.84 36.5615 114.954 36.2496 115.864 35.6348C116.774 35.0201 117.447 34.1136 117.888 32.915C118.209 32.017 118.377 30.1061 118.377 27.1816V11.9907H126.181V25.134C126.181 30.5549 125.75 34.2599 124.889 36.2584C123.844 38.6966 122.288 40.5582 120.245 41.8645C118.201 43.1612 115.601 43.8147 112.45 43.8147C109.028 43.8147 106.271 43.0548 104.159 41.5336C102.045 40.012 100.562 37.8961 99.7 35.1759C99.0838 33.2948 98.7803 29.8722 98.7803 24.9102V11.9907Z" fill="#462F56"/>
<path d="M132.175 11.9925H138.923V15.9416C139.646 14.4016 140.604 13.2308 141.797 12.4316C143 11.6318 144.31 11.2319 145.727 11.2319C146.735 11.2319 147.791 11.4955 148.896 12.0325L146.472 18.7597C145.563 18.3008 144.81 18.0763 144.222 18.0763C143.029 18.0763 142.012 18.8174 141.191 20.2997C140.359 21.7816 139.95 24.687 139.95 29.0164L139.979 30.5282V43.0566H132.175V11.9925Z" fill="#462F56"/>
<path d="M175.82 11.9925H183.622V43.0566H175.82V39.7507C174.294 41.1937 172.759 42.2275 171.223 42.8613C169.689 43.4946 168.016 43.8165 166.226 43.8165C162.188 43.8165 158.705 42.2668 155.764 39.1562C152.818 36.0561 151.353 32.1944 151.353 27.5828C151.353 22.7957 152.781 18.8769 155.626 15.8143C158.471 12.7625 161.922 11.2319 165.992 11.2319C167.87 11.2319 169.62 11.5837 171.263 12.2752C172.904 12.9679 174.421 14.0213 175.82 15.4048V11.9925ZM167.594 18.3693C165.171 18.3693 163.156 19.2172 161.56 20.9234C159.957 22.6201 159.156 24.8042 159.156 27.4656C159.156 30.1472 159.968 32.3508 161.6 34.0862C163.233 35.8115 165.238 36.6791 167.623 36.6791C170.08 36.6791 172.122 35.8312 173.736 34.125C175.36 32.429 176.171 30.1966 176.171 27.4371C176.171 24.7364 175.36 22.5517 173.736 20.8747C172.122 19.2082 170.069 18.3693 167.594 18.3693Z" fill="#462F56"/>
<path d="M192.313 1.05225H200.832C205.438 1.05225 208.753 1.47138 210.787 2.31931C212.821 3.16745 214.433 4.5427 215.608 6.43451C216.78 8.32588 217.368 10.5973 217.368 13.2499C217.368 16.1839 216.597 18.6215 215.05 20.5616C213.515 22.5023 211.423 23.8573 208.772 24.6179C207.217 25.0564 204.39 25.2708 200.294 25.2708V43.0553H192.313V1.05225ZM200.294 17.49H202.866C204.89 17.49 206.289 17.3443 207.081 17.0617C207.873 16.7683 208.488 16.3011 208.948 15.6381C209.399 14.9752 209.622 14.1753 209.622 13.2295C209.622 11.6015 208.987 10.4117 207.716 9.67084C206.796 9.11565 205.076 8.83236 202.571 8.83236H200.294V17.49Z" fill="#462F56"/>
<path d="M224.407 0H232.211V15.1714C233.737 13.8545 235.263 12.8701 236.808 12.2166C238.343 11.5637 239.908 11.2317 241.48 11.2317C244.562 11.2317 247.163 12.2947 249.276 14.4299C251.084 16.2723 251.983 18.9831 251.983 22.5514V43.0563H244.298V29.4542C244.298 25.8663 244.131 23.4299 243.79 22.1617C243.448 20.8852 242.86 19.9394 242.03 19.305C241.209 18.6813 240.18 18.3691 238.97 18.3691C237.393 18.3691 236.034 18.8962 234.9 19.9394C233.777 20.9826 232.993 22.4051 232.554 24.2089C232.328 25.1457 232.211 27.2708 232.211 30.5958V43.0563H224.407V0Z" fill="#462F56"/>
<path d="M282.619 11.9925H290.42V43.0566H282.619V39.7507C281.093 41.1937 279.558 42.2275 278.021 42.8613C276.487 43.4946 274.815 43.8165 273.025 43.8165C268.986 43.8165 265.504 42.2668 262.562 39.1562C259.618 36.0561 258.151 32.1944 258.151 27.5828C258.151 22.7957 259.579 18.8769 262.424 15.8143C265.269 12.7625 268.723 11.2319 272.791 11.2319C274.668 11.2319 276.418 11.5837 278.061 12.2752C279.702 12.9679 281.22 14.0213 282.619 15.4048V11.9925ZM274.392 18.3693C271.969 18.3693 269.954 19.2172 268.359 20.9234C266.756 22.6201 265.955 24.8042 265.955 27.4656C265.955 30.1472 266.766 32.3508 268.399 34.0862C270.031 35.8115 272.036 36.6791 274.421 36.6791C276.878 36.6791 278.92 35.8312 280.535 34.125C282.159 32.429 282.969 30.1966 282.969 27.4371C282.969 24.7364 282.159 22.5517 280.535 20.8747C278.92 19.2082 276.868 18.3693 274.392 18.3693Z" fill="#462F56"/>
<path d="M296.477 11.9925H303.223V15.9416C303.948 14.4016 304.906 13.2308 306.099 12.4316C307.302 11.6318 308.613 11.2319 310.029 11.2319C311.037 11.2319 312.093 11.4955 313.197 12.0325L310.774 18.7597C309.862 18.3008 309.112 18.0763 308.523 18.0763C307.331 18.0763 306.313 18.8174 305.493 20.2997C304.661 21.7816 304.252 24.687 304.252 29.0164L304.281 30.5282V43.0566H296.477V11.9925Z" fill="#462F56"/>
<path d="M317.002 11.9925H324.806V15.6203C326.146 14.1474 327.632 13.0458 329.275 12.3239C330.908 11.5931 332.697 11.2319 334.633 11.2319C336.579 11.2319 338.348 11.7099 339.914 12.6662C341.488 13.6208 342.749 15.0246 343.708 16.8576C344.95 15.0246 346.474 13.6208 348.284 12.6662C350.093 11.7099 352.078 11.2319 354.219 11.2319C356.439 11.2319 358.396 11.7492 360.077 12.7726C361.768 13.7963 362.972 15.142 363.715 16.7897C364.448 18.4472 364.82 21.1382 364.82 24.8626V43.0566H357.016V27.359C357.016 23.849 356.575 21.4698 355.687 20.2313C354.796 18.9929 353.456 18.3693 351.688 18.3693C350.329 18.3693 349.114 18.7494 348.048 19.5106C346.973 20.2611 346.173 21.3138 345.652 22.6493C345.136 23.9859 344.873 26.1301 344.873 29.0943V43.0566H337.066V28.0702C337.066 25.301 336.862 23.2931 336.441 22.0548C336.032 20.8073 335.405 19.8902 334.583 19.2762C333.753 18.6715 332.745 18.3693 331.573 18.3693C330.262 18.3693 329.068 18.7494 328.002 19.5196C326.928 20.2896 326.135 21.3627 325.598 22.747C325.069 24.1312 324.806 26.3153 324.806 29.2896V43.0566H317.002V11.9925Z" fill="#462F56"/>
<path d="M395.27 11.9925H403.074V43.0566H395.27V39.7507C393.744 41.1937 392.21 42.2275 390.673 42.8613C389.139 43.4946 387.466 43.8165 385.677 43.8165C381.638 43.8165 378.157 42.2668 375.214 39.1562C372.27 36.0561 370.805 32.1944 370.805 27.5828C370.805 22.7957 372.23 18.8769 375.075 15.8143C377.923 12.7625 381.374 11.2319 385.443 11.2319C387.319 11.2319 389.069 11.5837 390.713 12.2752C392.356 12.9679 393.872 14.0213 395.27 15.4048V11.9925ZM387.046 18.3693C384.621 18.3693 382.605 19.2172 381.013 20.9234C379.409 22.6201 378.607 24.8042 378.607 27.4656C378.607 30.1472 379.417 32.3508 381.052 34.0862C382.685 35.8115 384.688 36.6791 387.075 36.6791C389.529 36.6791 391.574 35.8312 393.188 34.125C394.81 32.429 395.621 30.1966 395.621 27.4371C395.621 24.7364 394.81 22.5517 393.188 20.8747C391.574 19.2082 389.519 18.3693 387.046 18.3693Z" fill="#462F56"/>
</svg>
