<svg width="200" height="62" viewBox="0 0 200 62" fill="none" xmlns="http://www.w3.org/2000/svg">
<path fill-rule="evenodd" clip-rule="evenodd" d="M30.8679 0C42.3761 0 52.4118 6.32494 57.72 15.7019C52.6422 7.54823 43.6228 2.1237 33.3404 2.1237C27.4267 2.1237 21.9317 3.919 17.3626 6.99518C19.6597 6.9548 22.0467 6.90364 24.2759 7.01639C27.6902 5.38958 31.509 4.47953 35.5394 4.47953C50.0755 4.47953 61.8592 16.3138 61.8592 30.9122C61.8592 32.2454 61.7599 33.5556 61.5701 34.8362C59.95 50.4879 45.4245 58.447 35.3024 58.4472C16.7716 58.4478 4.97314 41.8083 7.72791 30.197C8.28759 27.838 9.93239 26.2605 12.785 25.2132C10.8774 22.89 9.47088 19.9578 8.44744 16.5602C6.00416 20.8032 4.60432 25.7291 4.60432 30.9829C4.60432 46.9217 17.4702 59.8421 33.3404 59.8421C43.7436 59.8421 52.855 54.2903 57.8989 45.9763C52.6399 55.5295 42.5068 62 30.8679 62C13.8202 62 0 48.1206 0 30.9998C0 23.434 2.69849 16.5017 7.18233 11.1202C6.87161 9.34298 6.63029 7.48136 6.44778 5.54941C7.42743 6.4157 9.20563 6.79124 11.4055 6.94014C16.7162 2.60205 23.4886 0 30.8679 0ZM44.8934 22.1571C45.4624 20.646 45.926 19.7726 46.177 18.1659C44.7417 22.0463 43.436 23.6375 40.4881 26.1092C38.9368 27.0509 36.429 28.9697 34.3458 31.3687C32.9596 28.4572 31.0294 26.3446 28.7353 24.4166C26.3497 22.9689 23.6602 18.7333 21.0822 11.7619C21.5323 14.6493 22.0212 17.5251 23.0437 20.2399C19.7471 18.3695 16.0035 15.5362 11.9109 11.9529C16.236 16.6403 21.2029 20.812 26.6649 24.5856C22.8995 23.4483 19.0158 22.9171 14.8524 23.8361C24.0184 24.0915 31.0668 26.3207 33.3117 32.6507C31.9048 34.5437 30.8643 36.6549 30.755 38.78C17.9861 37.863 8.20486 34.3465 8.33916 30.5088C8.39874 28.8199 10.3699 27.3282 13.6493 26.1871C17.0886 29.7722 21.9787 31.5957 28.8741 30.9826C22.881 30.7182 18.4023 28.877 15.2087 25.6988L15.2368 25.6904C14.9207 25.3826 14.617 25.0624 14.3262 24.7291L14.3125 24.7325C10.9815 20.8466 9.26478 15.2805 8.83513 8.37521C14.6309 9.15989 15.1824 8.89767 21.319 8.65462C31.5716 8.56097 38.9187 14.0873 33.82 27.1291C34.6705 26.0931 35.3382 25.0282 35.8436 23.9555C37.1678 24.0212 38.4641 24.1154 39.7275 24.2353C39.741 24.5619 39.7644 24.8971 39.7996 25.2417C39.8097 24.9019 39.8289 24.5705 39.8569 24.2475L39.9134 24.2528C39.9446 23.953 39.9823 23.6608 40.0269 23.3755L39.9575 23.3716C40.6712 18.3884 43.654 15.5438 48.3394 14.3045L48.3536 14.3192C49.582 13.9979 50.9356 13.7861 52.4119 13.6746C52.0182 16.9565 52.1705 17.2776 52.3554 20.7624C52.394 22.4604 52.1619 24.0214 51.6319 25.3137C51.4839 25.6411 51.3248 25.9553 51.1508 26.2532L51.1626 26.2565C49.6667 28.7557 46.7157 29.8083 42.0155 28.0298C46.0057 31.2422 50.6743 29.7535 52.4158 26.6313C53.1616 26.8679 53.8638 27.1156 54.5174 27.3743C54.6429 28.3566 54.7074 29.3586 54.7074 30.3755C54.7074 32.6886 54.3724 34.9233 53.75 37.0334C49.4356 38.3188 43.3 39.067 36.4138 39.007C36.1306 36.6462 35.6498 34.6486 35.001 32.9156C38.3773 28.2582 44.7773 24.3408 49.538 25.122C47.2202 24.611 44.8705 24.5816 42.7744 25.2148C45.8146 23.1142 47.4568 21.0955 49.4166 17.6727C47.1385 19.6673 46.7279 21.1163 44.8934 22.1571ZM32.6928 38.8979C32.6933 37.5622 33.1176 36.1481 33.8512 34.7538C34.0653 36.0172 34.1241 37.4131 34.0111 38.954H34.0063C33.566 38.9382 33.1279 38.9194 32.6928 38.8979ZM53.3068 22.3681C53.2704 23.4494 53.1678 24.4686 52.9384 25.3405L52.9144 25.4253C53.3857 25.57 53.84 25.7204 54.2773 25.8779C54.0432 24.6723 53.7174 23.4997 53.3068 22.3681ZM39.7147 23.3589C39.7987 18.0364 42.8557 15.1142 47.5972 13.5513C43.4058 9.48328 37.7 6.97989 31.4112 6.97989C30.0509 6.97989 28.7181 7.0968 27.4217 7.32195C28.1047 7.42879 28.7574 7.56353 29.3662 7.73435C35.1641 9.36172 38.9328 16.3727 36.1531 23.2501C37.3735 23.2629 38.5617 23.2998 39.7147 23.3589ZM10.7914 35.0446C11.6123 35.7292 12.5404 35.9111 13.475 36.082C14.0923 43.3408 18.2141 47.5981 22.7164 51.5287C16.2589 47.8898 12.0759 42.5655 10.7914 35.0446Z" fill="white"/>
<path fill-rule="evenodd" clip-rule="evenodd" d="M30.8679 0C42.3761 0 52.4118 6.32494 57.72 15.7019C52.6422 7.54823 43.6228 2.1237 33.3404 2.1237C27.4267 2.1237 21.9317 3.919 17.3626 6.99518C19.6597 6.9548 22.0467 6.90364 24.2759 7.01639C27.6902 5.38958 31.509 4.47953 35.5394 4.47953C50.0755 4.47953 61.8592 16.3138 61.8592 30.9122C61.8592 32.2454 61.7599 33.5556 61.5701 34.8362C59.95 50.4879 45.4245 58.447 35.3024 58.4472C16.7716 58.4478 4.97314 41.8083 7.72791 30.197C8.28759 27.838 9.93239 26.2605 12.785 25.2132C10.8774 22.89 9.47088 19.9578 8.44744 16.5602C6.00416 20.8032 4.60432 25.7291 4.60432 30.9829C4.60432 46.9217 17.4702 59.8421 33.3404 59.8421C43.7436 59.8421 52.855 54.2903 57.8989 45.9763C52.6399 55.5295 42.5068 62 30.8679 62C13.8202 62 0 48.1206 0 30.9998C0 23.434 2.69849 16.5017 7.18233 11.1202C6.87161 9.34298 6.63029 7.48136 6.44778 5.54941C7.42743 6.4157 9.20563 6.79124 11.4055 6.94014C16.7162 2.60205 23.4886 0 30.8679 0ZM44.8934 22.1571C45.4624 20.646 45.926 19.7726 46.177 18.1659C44.7417 22.0463 43.436 23.6375 40.4881 26.1092C38.9368 27.0509 36.429 28.9697 34.3458 31.3687C32.9596 28.4572 31.0294 26.3446 28.7353 24.4166C26.3497 22.9689 23.6602 18.7333 21.0822 11.7619C21.5323 14.6493 22.0212 17.5251 23.0437 20.2399C19.7471 18.3695 16.0035 15.5362 11.9109 11.9529C16.236 16.6403 21.2029 20.812 26.6649 24.5856C22.8995 23.4483 19.0158 22.9171 14.8524 23.8361C24.0184 24.0915 31.0668 26.3207 33.3117 32.6507C31.9048 34.5437 30.8643 36.6549 30.755 38.78C17.9861 37.863 8.20486 34.3465 8.33916 30.5088C8.39874 28.8199 10.3699 27.3282 13.6493 26.1871C17.0886 29.7722 21.9787 31.5957 28.8741 30.9826C22.881 30.7182 18.4023 28.877 15.2087 25.6988L15.2368 25.6904C14.9207 25.3826 14.617 25.0624 14.3262 24.7291L14.3125 24.7325C10.9815 20.8466 9.26478 15.2805 8.83513 8.37521C14.6309 9.15989 15.1824 8.89767 21.319 8.65462C31.5716 8.56097 38.9187 14.0873 33.82 27.1291C34.6705 26.0931 35.3382 25.0282 35.8436 23.9555C37.1678 24.0212 38.4641 24.1154 39.7275 24.2353C39.741 24.5619 39.7644 24.8971 39.7996 25.2417C39.8097 24.9019 39.8289 24.5705 39.8569 24.2475L39.9134 24.2528C39.9446 23.953 39.9823 23.6608 40.0269 23.3755L39.9575 23.3716C40.6712 18.3884 43.654 15.5438 48.3394 14.3045L48.3536 14.3192C49.582 13.9979 50.9356 13.7861 52.4119 13.6746C52.0182 16.9565 52.1705 17.2776 52.3554 20.7624C52.394 22.4604 52.1619 24.0214 51.6319 25.3137C51.4839 25.6411 51.3248 25.9553 51.1508 26.2532L51.1626 26.2565C49.6667 28.7557 46.7157 29.8083 42.0155 28.0298C46.0057 31.2422 50.6743 29.7535 52.4158 26.6313C53.1616 26.8679 53.8638 27.1156 54.5174 27.3743C54.6429 28.3566 54.7074 29.3586 54.7074 30.3755C54.7074 32.6886 54.3724 34.9233 53.75 37.0334C49.4356 38.3188 43.3 39.067 36.4138 39.007C36.1306 36.6462 35.6498 34.6486 35.001 32.9156C38.3773 28.2582 44.7773 24.3408 49.538 25.122C47.2202 24.611 44.8705 24.5816 42.7744 25.2148C45.8146 23.1142 47.4568 21.0955 49.4166 17.6727C47.1385 19.6673 46.7279 21.1163 44.8934 22.1571ZM32.6928 38.8979C32.6933 37.5622 33.1176 36.1481 33.8512 34.7538C34.0653 36.0172 34.1241 37.4131 34.0111 38.954H34.0063C33.566 38.9382 33.1279 38.9194 32.6928 38.8979ZM53.3068 22.3681C53.2704 23.4494 53.1678 24.4686 52.9384 25.3405L52.9144 25.4253C53.3857 25.57 53.84 25.7204 54.2773 25.8779C54.0432 24.6723 53.7174 23.4997 53.3068 22.3681ZM39.7147 23.3589C39.7987 18.0364 42.8557 15.1142 47.5972 13.5513C43.4058 9.48328 37.7 6.97989 31.4112 6.97989C30.0509 6.97989 28.7181 7.0968 27.4217 7.32195C28.1047 7.42879 28.7574 7.56353 29.3662 7.73435C35.1641 9.36172 38.9328 16.3727 36.1531 23.2501C37.3735 23.2629 38.5617 23.2998 39.7147 23.3589ZM10.7914 35.0446C11.6123 35.7292 12.5404 35.9111 13.475 36.082C14.0923 43.3408 18.2141 47.5981 22.7164 51.5287C16.2589 47.8898 12.0759 42.5655 10.7914 35.0446Z" fill="white"/>
<path d="M70.5586 24.5215H73.0017L78.8302 33.3982V24.5215H81.3925V38.0101H78.9301L73.1209 29.1615V38.0101H70.5586V24.5215Z" fill="white"/>
<path d="M70.5586 24.5215H73.0017L78.8302 33.3982V24.5215H81.3925V38.0101H78.9301L73.1209 29.1615V38.0101H70.5586V24.5215Z" fill="white"/>
<path d="M91.5972 28.0348H94.1028V38.0105H91.5972V36.9489C91.1072 37.4123 90.6146 37.7443 90.1211 37.9478C89.6284 38.1512 89.0912 38.2545 88.5167 38.2545C87.2196 38.2545 86.1018 37.7569 85.1566 36.758C84.2114 35.7624 83.7407 34.5223 83.7407 33.0414C83.7407 31.504 84.1986 30.2456 85.113 29.2621C86.0266 28.2821 87.1349 27.7905 88.4408 27.7905C89.0442 27.7905 89.6062 27.9035 90.1338 28.1255C90.6615 28.348 91.1482 28.6863 91.5972 29.1306V28.0348ZM88.9563 30.0826C88.1776 30.0826 87.5304 30.3549 87.0188 30.9028C86.5039 31.4477 86.2462 32.1491 86.2462 33.0037C86.2462 33.8649 86.5066 34.5725 87.031 35.1298C87.5558 35.6839 88.1997 35.9625 88.9658 35.9625C89.7538 35.9625 90.4104 35.6902 90.9287 35.1423C91.4496 34.5976 91.7101 33.8807 91.7101 32.9946C91.7101 32.1273 91.4496 31.4257 90.9287 30.8871C90.4104 30.352 89.7506 30.0826 88.9563 30.0826Z" fill="white"/>
<path d="M91.5972 28.0348H94.1028V38.0105H91.5972V36.9489C91.1072 37.4123 90.6146 37.7443 90.1211 37.9478C89.6284 38.1512 89.0912 38.2545 88.5167 38.2545C87.2196 38.2545 86.1018 37.7569 85.1566 36.758C84.2114 35.7624 83.7407 34.5223 83.7407 33.0414C83.7407 31.504 84.1986 30.2456 85.113 29.2621C86.0266 28.2821 87.1349 27.7905 88.4408 27.7905C89.0442 27.7905 89.6062 27.9035 90.1338 28.1255C90.6615 28.348 91.1482 28.6863 91.5972 29.1306V28.0348ZM88.9563 30.0826C88.1776 30.0826 87.5304 30.3549 87.0188 30.9028C86.5039 31.4477 86.2462 32.1491 86.2462 33.0037C86.2462 33.8649 86.5066 34.5725 87.031 35.1298C87.5558 35.6839 88.1997 35.9625 88.9658 35.9625C89.7538 35.9625 90.4104 35.6902 90.9287 35.1423C91.4496 34.5976 91.7101 33.8807 91.7101 32.9946C91.7101 32.1273 91.4496 31.4257 90.9287 30.8871C90.4104 30.352 89.7506 30.0826 88.9563 30.0826Z" fill="white"/>
<path d="M96.933 24.3525H99.439V28.0346H100.927V30.1952H99.439V38.0103H96.933V30.1952H95.6514V28.0346H96.933V24.3525Z" fill="white"/>
<path d="M96.933 24.3525H99.439V28.0346H100.927V30.1952H99.439V38.0103H96.933V30.1952H95.6514V28.0346H96.933V24.3525Z" fill="white"/>
<path d="M102.28 28.0342H104.824V32.8309C104.824 33.7639 104.89 34.4124 105.019 34.7753C105.148 35.1386 105.354 35.4203 105.64 35.6239C105.926 35.8246 106.281 35.9247 106.699 35.9247C107.117 35.9247 107.474 35.8246 107.766 35.6271C108.059 35.4297 108.275 35.1386 108.416 34.7537C108.52 34.4653 108.573 33.8517 108.573 32.9125V28.0342H111.08V32.2549C111.08 33.9958 110.941 35.1856 110.665 35.8274C110.329 36.6104 109.83 37.2082 109.173 37.6277C108.517 38.0441 107.682 38.254 106.67 38.254C105.571 38.254 104.686 38.0099 104.008 37.5214C103.329 37.0328 102.852 36.3533 102.576 35.4797C102.378 34.8757 102.28 33.7765 102.28 32.1831V28.0342Z" fill="white"/>
<path d="M102.28 28.0342H104.824V32.8309C104.824 33.7639 104.89 34.4124 105.019 34.7753C105.148 35.1386 105.354 35.4203 105.64 35.6239C105.926 35.8246 106.281 35.9247 106.699 35.9247C107.117 35.9247 107.474 35.8246 107.766 35.6271C108.059 35.4297 108.275 35.1386 108.416 34.7537C108.52 34.4653 108.573 33.8517 108.573 32.9125V28.0342H111.08V32.2549C111.08 33.9958 110.941 35.1856 110.665 35.8274C110.329 36.6104 109.83 37.2082 109.173 37.6277C108.517 38.0441 107.682 38.254 106.67 38.254C105.571 38.254 104.686 38.0099 104.008 37.5214C103.329 37.0328 102.852 36.3533 102.576 35.4797C102.378 34.8757 102.28 33.7765 102.28 32.1831V28.0342Z" fill="white"/>
<path d="M113.004 28.0348H115.171V29.303C115.404 28.8084 115.711 28.4324 116.095 28.1758C116.481 27.9189 116.901 27.7905 117.357 27.7905C117.68 27.7905 118.019 27.8752 118.374 28.0476L117.596 30.2079C117.304 30.0606 117.062 29.9885 116.873 29.9885C116.49 29.9885 116.164 30.2265 115.9 30.7025C115.633 31.1784 115.501 32.1114 115.501 33.5017L115.51 33.9872V38.0105H113.004V28.0348Z" fill="white"/>
<path d="M113.004 28.0348H115.171V29.303C115.404 28.8084 115.711 28.4324 116.095 28.1758C116.481 27.9189 116.901 27.7905 117.357 27.7905C117.68 27.7905 118.019 27.8752 118.374 28.0476L117.596 30.2079C117.304 30.0606 117.062 29.9885 116.873 29.9885C116.49 29.9885 116.164 30.2265 115.9 30.7025C115.633 31.1784 115.501 32.1114 115.501 33.5017L115.51 33.9872V38.0105H113.004V28.0348Z" fill="white"/>
<path d="M127.02 28.0348H129.526V38.0105H127.02V36.9489C126.53 37.4123 126.038 37.7443 125.544 37.9478C125.051 38.1512 124.514 38.2545 123.94 38.2545C122.643 38.2545 121.524 37.7569 120.58 36.758C119.634 35.7624 119.163 34.5223 119.163 33.0414C119.163 31.504 119.622 30.2456 120.535 29.2621C121.449 28.2821 122.557 27.7905 123.864 27.7905C124.467 27.7905 125.029 27.9035 125.557 28.1255C126.084 28.348 126.571 28.6863 127.02 29.1306V28.0348ZM124.379 30.0826C123.601 30.0826 122.954 30.3549 122.441 30.9028C121.926 31.4477 121.669 32.1491 121.669 33.0037C121.669 33.8649 121.93 34.5725 122.454 35.1298C122.978 35.6839 123.622 35.9625 124.388 35.9625C125.177 35.9625 125.833 35.6902 126.351 35.1423C126.873 34.5976 127.133 33.8807 127.133 32.9946C127.133 32.1273 126.873 31.4257 126.351 30.8871C125.833 30.352 125.174 30.0826 124.379 30.0826Z" fill="white"/>
<path d="M127.02 28.0348H129.526V38.0105H127.02V36.9489C126.53 37.4123 126.038 37.7443 125.544 37.9478C125.051 38.1512 124.514 38.2545 123.94 38.2545C122.643 38.2545 121.524 37.7569 120.58 36.758C119.634 35.7624 119.163 34.5223 119.163 33.0414C119.163 31.504 119.622 30.2456 120.535 29.2621C121.449 28.2821 122.557 27.7905 123.864 27.7905C124.467 27.7905 125.029 27.9035 125.557 28.1255C126.084 28.348 126.571 28.6863 127.02 29.1306V28.0348ZM124.379 30.0826C123.601 30.0826 122.954 30.3549 122.441 30.9028C121.926 31.4477 121.669 32.1491 121.669 33.0037C121.669 33.8649 121.93 34.5725 122.454 35.1298C122.978 35.6839 123.622 35.9625 124.388 35.9625C125.177 35.9625 125.833 35.6902 126.351 35.1423C126.873 34.5976 127.133 33.8807 127.133 32.9946C127.133 32.1273 126.873 31.4257 126.351 30.8871C125.833 30.352 125.174 30.0826 124.379 30.0826Z" fill="white"/>
<path d="M132.317 24.5215H135.053C136.532 24.5215 137.596 24.6561 138.249 24.9284C138.903 25.2007 139.42 25.6424 139.798 26.2499C140.174 26.8573 140.363 27.5867 140.363 28.4386C140.363 29.3808 140.115 30.1636 139.618 30.7866C139.126 31.4098 138.454 31.845 137.603 32.0892C137.103 32.23 136.195 32.2989 134.88 32.2989V38.0101H132.317V24.5215ZM134.88 29.8002H135.706C136.356 29.8002 136.805 29.7534 137.059 29.6627C137.314 29.5684 137.511 29.4184 137.659 29.2055C137.804 28.9926 137.876 28.7358 137.876 28.432C137.876 27.9092 137.672 27.5271 137.263 27.2892C136.968 27.1109 136.415 27.0199 135.611 27.0199H134.88V29.8002Z" fill="white"/>
<path d="M132.317 24.5215H135.053C136.532 24.5215 137.596 24.6561 138.249 24.9284C138.903 25.2007 139.42 25.6424 139.798 26.2499C140.174 26.8573 140.363 27.5867 140.363 28.4386C140.363 29.3808 140.115 30.1636 139.618 30.7866C139.126 31.4098 138.454 31.845 137.603 32.0892C137.103 32.23 136.195 32.2989 134.88 32.2989V38.0101H132.317V24.5215ZM134.88 29.8002H135.706C136.356 29.8002 136.805 29.7534 137.059 29.6627C137.314 29.5684 137.511 29.4184 137.659 29.2055C137.804 28.9926 137.876 28.7358 137.876 28.432C137.876 27.9092 137.672 27.5271 137.263 27.2892C136.968 27.1109 136.415 27.0199 135.611 27.0199H134.88V29.8002Z" fill="white"/>
<path d="M142.624 24.1836H145.13V29.0556C145.62 28.6327 146.11 28.3166 146.606 28.1068C147.099 27.8971 147.601 27.7905 148.106 27.7905C149.096 27.7905 149.931 28.1318 150.61 28.8175C151.19 29.4092 151.479 30.2797 151.479 31.4256V38.0105H149.011V33.6424C149.011 32.4902 148.957 31.7077 148.848 31.3005C148.738 30.8906 148.549 30.5868 148.283 30.3831C148.019 30.1828 147.689 30.0825 147.3 30.0825C146.794 30.0825 146.357 30.2518 145.993 30.5868C145.632 30.9218 145.381 31.3786 145.24 31.9579C145.167 32.2587 145.13 32.9412 145.13 34.0089V38.0105H142.624V24.1836Z" fill="white"/>
<path d="M142.624 24.1836H145.13V29.0556C145.62 28.6327 146.11 28.3166 146.606 28.1068C147.099 27.8971 147.601 27.7905 148.106 27.7905C149.096 27.7905 149.931 28.1318 150.61 28.8175C151.19 29.4092 151.479 30.2797 151.479 31.4256V38.0105H149.011V33.6424C149.011 32.4902 148.957 31.7077 148.848 31.3005C148.738 30.8906 148.549 30.5868 148.283 30.3831C148.019 30.1828 147.689 30.0825 147.3 30.0825C146.794 30.0825 146.357 30.2518 145.993 30.5868C145.632 30.9218 145.381 31.3786 145.24 31.9579C145.167 32.2587 145.13 32.9412 145.13 34.0089V38.0105H142.624V24.1836Z" fill="white"/>
<path d="M161.317 28.0348H163.823V38.0105H161.317V36.9489C160.827 37.4123 160.334 37.7443 159.841 37.9478C159.348 38.1512 158.811 38.2545 158.236 38.2545C156.939 38.2545 155.821 37.7569 154.876 36.758C153.931 35.7624 153.46 34.5223 153.46 33.0414C153.46 31.504 153.918 30.2456 154.832 29.2621C155.746 28.2821 156.855 27.7905 158.161 27.7905C158.764 27.7905 159.326 27.9035 159.854 28.1255C160.381 28.348 160.868 28.6863 161.317 29.1306V28.0348ZM158.675 30.0826C157.897 30.0826 157.25 30.3549 156.738 30.9028C156.223 31.4477 155.966 32.1491 155.966 33.0037C155.966 33.8649 156.227 34.5725 156.751 35.1298C157.275 35.6839 157.919 35.9625 158.685 35.9625C159.474 35.9625 160.13 35.6902 160.648 35.1423C161.17 34.5976 161.43 33.8807 161.43 32.9946C161.43 32.1273 161.17 31.4257 160.648 30.8871C160.13 30.352 159.47 30.0826 158.675 30.0826Z" fill="white"/>
<path d="M161.317 28.0348H163.823V38.0105H161.317V36.9489C160.827 37.4123 160.334 37.7443 159.841 37.9478C159.348 38.1512 158.811 38.2545 158.236 38.2545C156.939 38.2545 155.821 37.7569 154.876 36.758C153.931 35.7624 153.46 34.5223 153.46 33.0414C153.46 31.504 153.918 30.2456 154.832 29.2621C155.746 28.2821 156.855 27.7905 158.161 27.7905C158.764 27.7905 159.326 27.9035 159.854 28.1255C160.381 28.348 160.868 28.6863 161.317 29.1306V28.0348ZM158.675 30.0826C157.897 30.0826 157.25 30.3549 156.738 30.9028C156.223 31.4477 155.966 32.1491 155.966 33.0037C155.966 33.8649 156.227 34.5725 156.751 35.1298C157.275 35.6839 157.919 35.9625 158.685 35.9625C159.474 35.9625 160.13 35.6902 160.648 35.1423C161.17 34.5976 161.43 33.8807 161.43 32.9946C161.43 32.1273 161.17 31.4257 160.648 30.8871C160.13 30.352 159.47 30.0826 158.675 30.0826Z" fill="white"/>
<path d="M165.768 28.0348H167.934V29.303C168.167 28.8084 168.474 28.4324 168.858 28.1758C169.244 27.9189 169.665 27.7905 170.12 27.7905C170.443 27.7905 170.782 27.8752 171.137 28.0476L170.359 30.2079C170.066 30.0606 169.825 29.9885 169.636 29.9885C169.253 29.9885 168.926 30.2265 168.663 30.7025C168.396 31.1784 168.264 32.1114 168.264 33.5017L168.274 33.9872V38.0105H165.768V28.0348Z" fill="white"/>
<path d="M165.768 28.0348H167.934V29.303C168.167 28.8084 168.474 28.4324 168.858 28.1758C169.244 27.9189 169.665 27.7905 170.12 27.7905C170.443 27.7905 170.782 27.8752 171.137 28.0476L170.359 30.2079C170.066 30.0606 169.825 29.9885 169.636 29.9885C169.253 29.9885 168.926 30.2265 168.663 30.7025C168.396 31.1784 168.264 32.1114 168.264 33.5017L168.274 33.9872V38.0105H165.768V28.0348Z" fill="white"/>
<path d="M172.359 28.0348H174.865V29.1998C175.295 28.7268 175.772 28.373 176.3 28.1412C176.824 27.9065 177.399 27.7905 178.021 27.7905C178.646 27.7905 179.214 27.944 179.717 28.2511C180.222 28.5577 180.627 29.0085 180.935 29.5971C181.334 29.0085 181.823 28.5577 182.405 28.2511C182.985 27.944 183.623 27.7905 184.311 27.7905C185.024 27.7905 185.652 27.9566 186.192 28.2853C186.735 28.614 187.121 29.0462 187.36 29.5753C187.595 30.1076 187.715 30.9718 187.715 32.1678V38.0105H185.209V32.9695C185.209 31.8423 185.067 31.0783 184.782 30.6805C184.496 30.2829 184.066 30.0826 183.498 30.0826C183.061 30.0826 182.671 30.2046 182.329 30.4491C181.984 30.6901 181.727 31.0282 181.56 31.457C181.394 31.8863 181.309 32.5748 181.309 33.5268V38.0105H178.802V33.1979C178.802 32.3086 178.737 31.6638 178.601 31.2661C178.47 30.8655 178.269 30.571 178.005 30.3738C177.738 30.1796 177.415 30.0826 177.038 30.0826C176.617 30.0826 176.234 30.2046 175.891 30.452C175.546 30.6993 175.292 31.0439 175.119 31.4884C174.949 31.9329 174.865 32.6343 174.865 33.5895V38.0105H172.359V28.0348Z" fill="white"/>
<path d="M172.359 28.0348H174.865V29.1998C175.295 28.7268 175.772 28.373 176.3 28.1412C176.824 27.9065 177.399 27.7905 178.021 27.7905C178.646 27.7905 179.214 27.944 179.717 28.2511C180.222 28.5577 180.627 29.0085 180.935 29.5971C181.334 29.0085 181.823 28.5577 182.405 28.2511C182.985 27.944 183.623 27.7905 184.311 27.7905C185.024 27.7905 185.652 27.9566 186.192 28.2853C186.735 28.614 187.121 29.0462 187.36 29.5753C187.595 30.1076 187.715 30.9718 187.715 32.1678V38.0105H185.209V32.9695C185.209 31.8423 185.067 31.0783 184.782 30.6805C184.496 30.2829 184.066 30.0826 183.498 30.0826C183.061 30.0826 182.671 30.2046 182.329 30.4491C181.984 30.6901 181.727 31.0282 181.56 31.457C181.394 31.8863 181.309 32.5748 181.309 33.5268V38.0105H178.802V33.1979C178.802 32.3086 178.737 31.6638 178.601 31.2661C178.47 30.8655 178.269 30.571 178.005 30.3738C177.738 30.1796 177.415 30.0826 177.038 30.0826C176.617 30.0826 176.234 30.2046 175.891 30.452C175.546 30.6993 175.292 31.0439 175.119 31.4884C174.949 31.9329 174.865 32.6343 174.865 33.5895V38.0105H172.359V28.0348Z" fill="white"/>
<path d="M197.493 28.0348H200V38.0105H197.493V36.9489C197.003 37.4123 196.511 37.7443 196.017 37.9478C195.524 38.1512 194.987 38.2545 194.413 38.2545C193.116 38.2545 191.998 37.7569 191.053 36.758C190.107 35.7624 189.637 34.5223 189.637 33.0414C189.637 31.504 190.095 30.2456 191.008 29.2621C191.923 28.2821 193.031 27.7905 194.338 27.7905C194.94 27.7905 195.502 27.9035 196.03 28.1255C196.558 28.348 197.044 28.6863 197.493 29.1306V28.0348ZM194.852 30.0826C194.074 30.0826 193.426 30.3549 192.915 30.9028C192.4 31.4477 192.142 32.1491 192.142 33.0037C192.142 33.8649 192.403 34.5725 192.928 35.1298C193.452 35.6839 194.095 35.9625 194.862 35.9625C195.65 35.9625 196.307 35.6902 196.825 35.1423C197.346 34.5976 197.606 33.8807 197.606 32.9946C197.606 32.1273 197.346 31.4257 196.825 30.8871C196.307 30.352 195.647 30.0826 194.852 30.0826Z" fill="white"/>
<path d="M197.493 28.0348H200V38.0105H197.493V36.9489C197.003 37.4123 196.511 37.7443 196.017 37.9478C195.524 38.1512 194.987 38.2545 194.413 38.2545C193.116 38.2545 191.998 37.7569 191.053 36.758C190.107 35.7624 189.637 34.5223 189.637 33.0414C189.637 31.504 190.095 30.2456 191.008 29.2621C191.923 28.2821 193.031 27.7905 194.338 27.7905C194.94 27.7905 195.502 27.9035 196.03 28.1255C196.558 28.348 197.044 28.6863 197.493 29.1306V28.0348ZM194.852 30.0826C194.074 30.0826 193.426 30.3549 192.915 30.9028C192.4 31.4477 192.142 32.1491 192.142 33.0037C192.142 33.8649 192.403 34.5725 192.928 35.1298C193.452 35.6839 194.095 35.9625 194.862 35.9625C195.65 35.9625 196.307 35.6902 196.825 35.1423C197.346 34.5976 197.606 33.8807 197.606 32.9946C197.606 32.1273 197.346 31.4257 196.825 30.8871C196.307 30.352 195.647 30.0826 194.852 30.0826Z" fill="white"/>
</svg>
