<svg width="190" height="59" viewBox="0 0 190 59" fill="none" xmlns="http://www.w3.org/2000/svg">
<path fill-rule="evenodd" clip-rule="evenodd" d="M29.3246 0C40.2574 0 49.7913 6.01889 54.8341 14.9421C50.0102 7.183 41.4417 2.02094 31.6735 2.02094C26.0554 2.02094 20.8352 3.72938 16.4945 6.65671C18.6768 6.61828 20.9444 6.56959 23.0621 6.67689C26.3058 5.1288 29.9336 4.26278 33.7625 4.26278C47.5718 4.26278 58.7664 15.5245 58.7664 29.4165C58.7664 30.6851 58.672 31.932 58.4917 33.1505C56.9526 48.045 43.1534 55.6189 33.5373 55.6191C15.933 55.6197 4.72449 39.7853 7.34152 28.7359C7.87322 26.491 9.43579 24.9898 12.1457 23.9932C10.3335 21.7824 8.99735 18.9921 8.02508 15.7589C5.70396 19.7966 4.37412 24.4841 4.37412 29.4837C4.37412 44.6513 16.5967 56.9465 31.6735 56.9465C41.5565 56.9465 50.2123 51.6634 55.004 43.7516C50.008 52.8426 40.3816 59 29.3246 59C13.1292 59 0 45.7922 0 29.4998C0 22.3001 2.56357 15.7032 6.82322 10.5821C6.52804 8.8909 6.29879 7.11936 6.1254 5.28089C7.05607 6.10527 8.74537 6.46263 10.8352 6.60433C15.8804 2.47615 22.3142 0 29.3246 0ZM42.6488 21.085C43.1893 19.647 43.6298 18.8159 43.8682 17.2869C42.5047 20.9795 41.2643 22.4937 38.4638 24.8458C36.99 25.742 34.6076 27.5679 32.6285 29.8509C31.3117 27.0802 29.478 25.0699 27.2986 23.2352C25.0323 21.8575 22.4773 17.8269 20.0282 11.1928C20.4557 13.9404 20.9202 16.6771 21.8915 19.2605C18.7598 17.4806 15.2033 14.7845 11.3154 11.3745C15.4243 15.8351 20.1428 19.805 25.3317 23.396C21.7545 22.3137 18.065 21.8082 14.1098 22.6827C22.8175 22.9258 29.5135 25.0471 31.6462 31.0709C30.3096 32.8722 29.3211 34.8813 29.2173 36.9035C17.0868 36.0309 7.79463 32.6845 7.92222 29.0326C7.97882 27.4254 9.85143 26.0059 12.9669 24.92C16.2342 28.3316 20.8798 30.0668 27.4304 29.4834C21.737 29.2319 17.4822 27.4798 14.4483 24.4553L14.475 24.4474C14.1747 24.1544 13.8862 23.8497 13.6099 23.5326L13.5969 23.5358C10.4325 19.8379 8.80156 14.5411 8.39339 7.96995C13.8994 8.71667 14.4233 8.46714 20.2531 8.23585C29.993 8.14673 36.9729 13.4057 32.129 25.8164C32.937 24.8305 33.5714 23.8172 34.0515 22.7964C35.3094 22.8589 36.541 22.9485 37.7412 23.0626C37.754 23.3734 37.7763 23.6924 37.8097 24.0203C37.8193 23.6969 37.8375 23.3816 37.8641 23.0742L37.9178 23.0793C37.9475 22.794 37.9833 22.5159 38.0256 22.2444L37.9597 22.2407C38.6377 17.4986 41.4714 14.7917 45.9225 13.6123L45.936 13.6263C47.103 13.3206 48.3889 13.1191 49.7914 13.0129C49.4174 16.1361 49.562 16.4416 49.7378 19.7577C49.7744 21.3736 49.5539 22.8591 49.0504 24.0888C48.9098 24.4004 48.7586 24.6994 48.5934 24.9829L48.6046 24.986C47.1835 27.3643 44.38 28.366 39.9148 26.6736C43.7055 29.7305 48.1407 28.3138 49.7951 25.3427C50.5036 25.5678 51.1707 25.8035 51.7916 26.0498C51.9108 26.9845 51.9721 27.9381 51.9721 28.9057C51.9721 31.1069 51.6539 33.2334 51.0625 35.2414C46.9639 36.4647 41.1351 37.1767 34.5932 37.1195C34.3242 34.873 33.8673 32.9721 33.251 31.3229C36.4585 26.8909 42.5385 23.163 47.0612 23.9064C44.8593 23.4202 42.6271 23.3922 40.6358 23.9947C43.524 21.9958 45.084 20.0747 46.9459 16.8175C44.7817 18.7157 44.3916 20.0946 42.6488 21.085ZM31.0582 37.0157C31.0586 35.7447 31.4618 34.399 32.1587 33.0722C32.3621 34.2744 32.418 35.6028 32.3106 37.0692H32.306C31.8877 37.0541 31.4716 37.0362 31.0582 37.0157ZM50.6415 21.2858C50.607 22.3148 50.5095 23.2847 50.2915 24.1143L50.2687 24.1951C50.7165 24.3327 51.1481 24.4759 51.5635 24.6257C51.3411 23.4785 51.0316 22.3626 50.6415 21.2858ZM37.7291 22.2286C37.8088 17.1636 40.713 14.3829 45.2174 12.8956C41.2356 9.02442 35.8151 6.64215 29.8407 6.64215C28.5484 6.64215 27.2822 6.75341 26.0507 6.96767C26.6995 7.06933 27.3196 7.19755 27.898 7.3601C33.406 8.90874 36.9862 15.5805 34.3455 22.1251C35.5049 22.1372 36.6337 22.1724 37.7291 22.2286ZM10.2519 33.3489C11.0317 34.0004 11.9134 34.1735 12.8013 34.3361C13.3877 41.2437 17.3034 45.295 21.5806 49.0354C15.446 45.5725 11.4721 40.5059 10.2519 33.3489Z" fill="#462F56"/>
<path d="M67.0312 23.335H69.3522L74.8893 31.7821V23.335H77.3235V36.1709H74.9842L69.4655 27.7505V36.1709H67.0312V23.335Z" fill="#462F56"/>
<path d="M87.0174 26.6782H89.3977V36.1713H87.0174V35.161C86.5519 35.602 86.0839 35.9179 85.6151 36.1116C85.147 36.3051 84.6366 36.4035 84.0909 36.4035C82.8586 36.4035 81.7967 35.9299 80.8988 34.9793C80.0008 34.032 79.5537 32.8518 79.5537 31.4426C79.5537 29.9796 79.9887 28.7821 80.8574 27.8462C81.7253 26.9135 82.7782 26.4458 84.0188 26.4458C84.592 26.4458 85.1259 26.5533 85.6272 26.7646C86.1285 26.9763 86.5908 27.2982 87.0174 27.721V26.6782ZM84.5085 28.6269C83.7687 28.6269 83.1539 28.8861 82.6679 29.4075C82.1787 29.926 81.934 30.5934 81.934 31.4067C81.934 32.2262 82.1813 32.8996 82.6795 33.43C83.1781 33.9572 83.7897 34.2224 84.5175 34.2224C85.2661 34.2224 85.8899 33.9632 86.3823 33.4418C86.8772 32.9235 87.1246 32.2413 87.1246 31.398C87.1246 30.5727 86.8772 29.9051 86.3823 29.3926C85.8899 28.8833 85.2631 28.6269 84.5085 28.6269Z" fill="#462F56"/>
<path d="M92.0867 23.1738H94.4674V26.6777H95.8814V28.7338H94.4674V36.1707H92.0867V28.7338H90.8691V26.6777H92.0867V23.1738Z" fill="#462F56"/>
<path d="M97.166 26.6777H99.5826V31.2423C99.5826 32.1302 99.645 32.7473 99.7675 33.0927C99.8899 33.4384 100.086 33.7065 100.358 33.9002C100.63 34.0912 100.966 34.1864 101.364 34.1864C101.761 34.1864 102.1 34.0912 102.378 33.9032C102.655 33.7154 102.861 33.4384 102.995 33.0721C103.093 32.7977 103.144 32.2137 103.144 31.32V26.6777H105.525V30.6943C105.525 32.3509 105.394 33.4831 105.131 34.0938C104.812 34.8389 104.338 35.4078 103.715 35.807C103.091 36.2033 102.298 36.403 101.336 36.403C100.292 36.403 99.4511 36.1708 98.807 35.7059C98.1622 35.2409 97.7094 34.5943 97.4466 33.763C97.2586 33.1882 97.166 32.1422 97.166 30.6259V26.6777Z" fill="#462F56"/>
<path d="M107.354 26.6782H109.413V27.8851C109.634 27.4144 109.926 27.0567 110.29 26.8124C110.657 26.568 111.057 26.4458 111.489 26.4458C111.797 26.4458 112.119 26.5263 112.456 26.6904L111.716 28.7462C111.439 28.606 111.209 28.5374 111.03 28.5374C110.666 28.5374 110.356 28.7639 110.105 29.2169C109.851 29.6697 109.726 30.5576 109.726 31.8807L109.735 32.3426V36.1713H107.354V26.6782Z" fill="#462F56"/>
<path d="M120.67 26.6782H123.05V36.1713H120.67V35.161C120.204 35.602 119.736 35.9179 119.267 36.1116C118.799 36.3051 118.289 36.4035 117.743 36.4035C116.511 36.4035 115.448 35.9299 114.551 34.9793C113.652 34.032 113.205 32.8518 113.205 31.4426C113.205 29.9796 113.641 28.7821 114.509 27.8462C115.377 26.9135 116.43 26.4458 117.671 26.4458C118.244 26.4458 118.778 26.5533 119.279 26.7646C119.78 26.9763 120.243 27.2982 120.67 27.721V26.6782ZM118.16 28.6269C117.421 28.6269 116.806 28.8861 116.319 29.4075C115.83 29.926 115.586 30.5934 115.586 31.4067C115.586 32.2262 115.833 32.8996 116.331 33.43C116.83 33.9572 117.441 34.2224 118.169 34.2224C118.918 34.2224 119.541 33.9632 120.034 33.4418C120.529 32.9235 120.777 32.2413 120.777 31.398C120.777 30.5727 120.529 29.9051 120.034 29.3926C119.541 28.8833 118.915 28.6269 118.16 28.6269Z" fill="#462F56"/>
<path d="M125.702 23.335H128.301C129.706 23.335 130.718 23.463 131.338 23.7222C131.959 23.9814 132.451 24.4016 132.809 24.9798C133.167 25.5578 133.346 26.2519 133.346 27.0625C133.346 27.9591 133.111 28.704 132.639 29.2969C132.17 29.89 131.532 30.3041 130.723 30.5365C130.249 30.6705 129.387 30.736 128.137 30.736V36.1709H125.702V23.335ZM128.137 28.3583H128.922C129.539 28.3583 129.966 28.3137 130.208 28.2274C130.449 28.1377 130.637 27.9949 130.777 27.7923C130.915 27.5898 130.983 27.3453 130.983 27.0563C130.983 26.5588 130.789 26.1952 130.401 25.9688C130.121 25.7991 129.596 25.7125 128.832 25.7125H128.137V28.3583Z" fill="#462F56"/>
<path d="M135.492 23.0137H137.873V27.65C138.338 27.2475 138.804 26.9467 139.275 26.747C139.744 26.5475 140.221 26.446 140.701 26.446C141.641 26.446 142.434 26.7709 143.079 27.4234C143.631 27.9864 143.905 28.8148 143.905 29.9053V36.1715H141.561V32.0148C141.561 30.9183 141.509 30.1737 141.406 29.7862C141.301 29.3961 141.122 29.1071 140.869 28.9132C140.618 28.7226 140.304 28.6272 139.935 28.6272C139.454 28.6272 139.039 28.7883 138.693 29.1071C138.351 29.4259 138.111 29.8606 137.978 30.4118C137.909 30.6981 137.873 31.3475 137.873 32.3636V36.1715H135.492V23.0137Z" fill="#462F56"/>
<path d="M153.252 26.6782H155.632V36.1713H153.252V35.161C152.786 35.602 152.318 35.9179 151.849 36.1116C151.381 36.3051 150.871 36.4035 150.325 36.4035C149.093 36.4035 148.03 35.9299 147.133 34.9793C146.235 34.032 145.787 32.8518 145.787 31.4426C145.787 29.9796 146.223 28.7821 147.091 27.8462C147.959 26.9135 149.012 26.4458 150.253 26.4458C150.826 26.4458 151.36 26.5533 151.861 26.7646C152.362 26.9763 152.825 27.2982 153.252 27.721V26.6782ZM150.742 28.6269C150.003 28.6269 149.388 28.8861 148.901 29.4075C148.412 29.926 148.168 30.5934 148.168 31.4067C148.168 32.2262 148.415 32.8996 148.913 33.43C149.411 33.9572 150.023 34.2224 150.751 34.2224C151.5 34.2224 152.123 33.9632 152.616 33.4418C153.111 32.9235 153.359 32.2413 153.359 31.398C153.359 30.5727 153.111 29.9051 152.616 29.3926C152.123 28.8833 151.497 28.6269 150.742 28.6269Z" fill="#462F56"/>
<path d="M157.479 26.6782H159.538V27.8851C159.759 27.4144 160.051 27.0567 160.415 26.8124C160.782 26.568 161.182 26.4458 161.614 26.4458C161.922 26.4458 162.244 26.5263 162.58 26.6904L161.841 28.7462C161.563 28.606 161.334 28.5374 161.154 28.5374C160.791 28.5374 160.48 28.7639 160.23 29.2169C159.976 29.6697 159.851 30.5576 159.851 31.8807L159.86 32.3426V36.1713H157.479V26.6782Z" fill="#462F56"/>
<path d="M163.741 26.6782H166.122V27.7869C166.531 27.3368 166.984 27.0001 167.485 26.7795C167.984 26.5562 168.53 26.4458 169.12 26.4458C169.714 26.4458 170.253 26.5919 170.731 26.8841C171.211 27.1758 171.596 27.6048 171.889 28.165C172.267 27.6048 172.732 27.1758 173.285 26.8841C173.836 26.5919 174.442 26.4458 175.095 26.4458C175.773 26.4458 176.37 26.6039 176.882 26.9166C177.398 27.2295 177.766 27.6407 177.992 28.1442C178.216 28.6508 178.33 29.4731 178.33 30.6113V36.1713H175.949V31.3742C175.949 30.3015 175.814 29.5744 175.543 29.196C175.271 28.8175 174.863 28.6269 174.323 28.6269C173.908 28.6269 173.538 28.7431 173.213 28.9757C172.885 29.2051 172.641 29.5268 172.482 29.9349C172.324 30.3434 172.244 30.9986 172.244 31.9045V36.1713H169.862V31.5915C169.862 30.7453 169.8 30.1317 169.672 29.7532C169.547 29.372 169.356 29.0917 169.105 28.9041C168.852 28.7193 168.544 28.6269 168.186 28.6269C167.786 28.6269 167.422 28.7431 167.097 28.9785C166.769 29.2138 166.527 29.5417 166.364 29.9647C166.202 30.3878 166.122 31.0552 166.122 31.9642V36.1713H163.741V26.6782Z" fill="#462F56"/>
<path d="M187.619 26.6782H190V36.1713H187.619V35.161C187.153 35.602 186.685 35.9179 186.217 36.1116C185.749 36.3051 185.238 36.4035 184.692 36.4035C183.46 36.4035 182.398 35.9299 181.5 34.9793C180.602 34.032 180.155 32.8518 180.155 31.4426C180.155 29.9796 180.59 28.7821 181.458 27.8462C182.327 26.9135 183.38 26.4458 184.621 26.4458C185.194 26.4458 185.727 26.5533 186.229 26.7646C186.73 26.9763 187.193 27.2982 187.619 27.721V26.6782ZM185.11 28.6269C184.37 28.6269 183.755 28.8861 183.269 29.4075C182.78 29.926 182.535 30.5934 182.535 31.4067C182.535 32.2262 182.783 32.8996 183.282 33.43C183.78 33.9572 184.391 34.2224 185.119 34.2224C185.868 34.2224 186.492 33.9632 186.984 33.4418C187.479 32.9235 187.726 32.2413 187.726 31.398C187.726 30.5727 187.479 29.9051 186.984 29.3926C186.492 28.8833 185.865 28.6269 185.11 28.6269Z" fill="#462F56"/>
</svg>
