<svg width="493" height="153" viewBox="0 0 493 153" fill="none" xmlns="http://www.w3.org/2000/svg">
<path fill-rule="evenodd" clip-rule="evenodd" d="M76.045 0C104.396 0 129.12 15.6083 142.197 38.7482C129.688 18.6271 107.467 5.24074 82.1363 5.24074C67.5673 5.24074 54.0302 9.67109 42.7739 17.2623C48.433 17.1627 54.3134 17.0364 59.8051 17.3146C68.2166 13.3001 77.6244 11.0543 87.5535 11.0543C123.364 11.0543 152.394 40.2584 152.394 76.2834C152.394 79.5733 152.149 82.8067 151.682 85.9667C147.691 124.591 111.906 144.232 86.9697 144.233C41.3178 144.234 12.2517 103.172 19.0382 74.5185C20.417 68.6969 24.4691 64.8041 31.4966 62.2197C26.7971 56.4866 23.3321 49.2507 20.8108 40.8663C14.7916 51.337 11.343 63.4927 11.343 76.4578C11.343 115.791 43.039 147.675 82.1363 147.675C107.765 147.675 130.212 133.974 142.638 113.458C129.682 137.032 104.718 153 76.045 153C34.0469 153 0 118.749 0 76.4994C0 57.829 6.64789 40.722 17.6941 27.4417C16.9286 23.0561 16.3342 18.4621 15.8845 13.6945C18.298 15.8323 22.6787 16.759 28.0981 17.1265C41.1815 6.42119 57.8657 0 76.045 0ZM110.598 54.678C111.999 50.949 113.142 48.7937 113.76 44.8287C110.224 54.4045 107.007 58.3312 99.745 64.4307C95.9232 66.7547 89.7452 71.4898 84.613 77.4099C81.1981 70.225 76.443 65.0117 70.7913 60.2539C64.9143 56.6814 58.2885 46.229 51.9374 29.0253C53.0462 36.1506 54.2506 43.2474 56.7695 49.9468C48.6482 45.3311 39.4256 38.3393 29.3433 29.4966C39.9985 41.0639 52.2348 51.3588 65.6906 60.6709C56.4143 57.8643 46.8466 56.5536 36.5899 58.8213C59.1708 59.4517 76.535 64.9528 82.0656 80.5736C78.5995 85.245 76.036 90.4549 75.7669 95.699C44.3099 93.4361 20.2132 84.7582 20.5441 75.2878C20.6908 71.12 25.5469 67.439 33.626 64.623C42.0989 73.4702 54.146 77.9699 71.1331 76.457C56.3688 75.8046 45.3352 71.2611 37.4675 63.4181L37.5368 63.3974C36.7581 62.6376 36.0099 61.8475 35.2935 61.0252L35.2598 61.0335C27.0537 51.4441 22.8244 37.7082 21.7659 20.6678C36.0441 22.6043 37.4027 21.9572 52.5207 21.3574C77.7786 21.1263 95.8788 34.7639 83.3177 66.9476C85.4129 64.391 87.0579 61.7632 88.3031 59.1161C91.5651 59.2781 94.7587 59.5106 97.8713 59.8064C97.9045 60.6125 97.9622 61.4396 98.0488 62.29C98.0737 61.4514 98.1211 60.6337 98.19 59.8365L98.3292 59.8497C98.4061 59.1098 98.499 58.3888 98.6087 57.6847L98.4379 57.6751C100.196 45.3777 107.544 38.3581 119.087 35.2997L119.122 35.336C122.148 34.5432 125.483 34.0206 129.12 33.7453C128.15 41.8444 128.525 42.6367 128.981 51.2362C129.076 55.4265 128.504 59.2787 127.199 62.4677C126.834 63.2756 126.442 64.0509 126.013 64.7862L126.042 64.7943C122.357 70.9616 115.087 73.5592 103.508 69.1704C113.338 77.0978 124.839 73.4239 129.13 65.7191C130.967 66.3029 132.697 66.9142 134.307 67.5528C134.616 69.9768 134.775 72.4495 134.775 74.959C134.775 80.667 133.95 86.1816 132.416 91.3888C121.788 94.5609 106.672 96.4073 89.7077 96.2591C89.0101 90.4334 87.8254 85.5039 86.2273 81.2273C94.5449 69.734 110.312 60.0668 122.04 61.9947C116.33 60.7337 110.541 60.661 105.377 62.2235C112.867 57.0398 116.913 52.0582 121.741 43.6116C116.129 48.5339 115.117 52.1097 110.598 54.678ZM80.5409 95.9899C80.5419 92.6937 81.5873 89.2042 83.3946 85.7634C83.922 88.8811 84.0669 92.326 83.7884 96.1285H83.7766C82.6919 96.0894 81.6127 96.0431 80.5409 95.9899ZM131.325 55.1987C131.235 57.8671 130.982 60.3822 130.417 62.5338L130.358 62.7431C131.519 63.1002 132.638 63.4713 133.716 63.8599C133.139 60.885 132.336 57.9911 131.325 55.1987ZM97.8398 57.6436C98.0466 44.5091 105.578 37.298 117.259 33.441C106.933 23.4023 92.8764 17.2246 77.3834 17.2246C74.0323 17.2246 70.7488 17.5131 67.5552 18.0687C69.2378 18.3323 70.8458 18.6648 72.3456 19.0864C86.629 23.1023 95.9134 40.4036 89.0654 57.3753C92.072 57.4068 94.9992 57.4979 97.8398 57.6436ZM26.5853 86.4811C28.6078 88.1705 30.8941 88.6194 33.1966 89.0411C34.7173 106.954 44.8715 117.46 55.9632 127.16C40.0549 118.18 29.7497 105.041 26.5853 86.4811Z" fill="#462F56"/>
<path d="M173.827 60.5127H179.846L194.205 82.418V60.5127H200.517V93.7991H194.451L180.14 71.9632V93.7991H173.827V60.5127Z" fill="#462F56"/>
<path d="M225.655 69.1818H231.827V93.7994H225.655V91.1795C224.448 92.3231 223.234 93.1424 222.018 93.6446C220.804 94.1465 219.481 94.4016 218.066 94.4016C214.87 94.4016 212.116 93.1735 209.788 90.7084C207.459 88.2517 206.3 85.1914 206.3 81.5368C206.3 77.7431 207.428 74.6375 209.68 72.2105C211.931 69.7921 214.662 68.5791 217.879 68.5791C219.365 68.5791 220.75 68.8579 222.05 69.4058C223.35 69.9548 224.548 70.7896 225.655 71.886V69.1818ZM219.149 74.2353C217.23 74.2353 215.636 74.9073 214.376 76.2593C213.107 77.604 212.472 79.3348 212.472 81.4439C212.472 83.569 213.114 85.3153 214.406 86.6906C215.699 88.0578 217.285 88.7454 219.172 88.7454C221.113 88.7454 222.731 88.0735 224.008 86.7214C225.291 85.3773 225.933 83.6081 225.933 81.4213C225.933 79.2811 225.291 77.5497 224.008 76.2207C222.731 74.9001 221.105 74.2353 219.149 74.2353Z" fill="#462F56"/>
<path d="M238.801 60.0955H244.975V69.1817H248.641V74.5138H244.975V93.7992H238.801V74.5138H235.644V69.1817H238.801V60.0955Z" fill="#462F56"/>
<path d="M251.973 69.1807H258.239V81.0177C258.239 83.3202 258.401 84.9204 258.719 85.816C259.036 86.7125 259.546 87.4078 260.251 87.91C260.955 88.4053 261.828 88.6524 262.859 88.6524C263.887 88.6524 264.769 88.4053 265.488 87.918C266.208 87.4309 266.74 86.7125 267.089 85.7627C267.344 85.051 267.476 83.5367 267.476 81.2191V69.1807H273.65V79.5964C273.65 83.8923 273.309 86.8285 272.628 88.4122C271.801 90.3445 270.571 91.8197 268.955 92.8549C267.337 93.8825 265.28 94.4004 262.787 94.4004C260.08 94.4004 257.898 93.7982 256.228 92.5927C254.556 91.3869 253.382 89.7101 252.7 87.5544C252.213 86.0637 251.973 83.3513 251.973 79.419V69.1807Z" fill="#462F56"/>
<path d="M278.394 69.1818H283.732V72.3114C284.305 71.091 285.062 70.1632 286.006 69.5298C286.958 68.896 287.994 68.5791 289.115 68.5791C289.913 68.5791 290.748 68.788 291.623 69.2135L289.704 74.5447C288.985 74.181 288.39 74.0031 287.925 74.0031C286.98 74.0031 286.176 74.5904 285.527 75.7651C284.868 76.9395 284.544 79.242 284.544 82.6729L284.567 83.8709V93.7994H278.394V69.1818Z" fill="#462F56"/>
<path d="M312.922 69.1818H319.095V93.7994H312.922V91.1795C311.715 92.3231 310.501 93.1424 309.286 93.6446C308.072 94.1465 306.749 94.4016 305.333 94.4016C302.138 94.4016 299.382 93.1735 297.055 90.7084C294.725 88.2517 293.565 85.1914 293.565 81.5368C293.565 77.7431 294.695 74.6375 296.946 72.2105C299.197 69.7921 301.927 68.5791 305.148 68.5791C306.633 68.5791 308.017 68.8579 309.317 69.4058C310.615 69.9548 311.816 70.7896 312.922 71.886V69.1818ZM306.414 74.2353C304.498 74.2353 302.903 74.9073 301.641 76.2593C300.373 77.604 299.739 79.3348 299.739 81.4439C299.739 83.569 300.381 85.3153 301.673 86.6906C302.964 88.0578 304.551 88.7454 306.438 88.7454C308.381 88.7454 309.997 88.0735 311.274 86.7214C312.559 85.3773 313.201 83.6081 313.201 81.4213C313.201 79.2811 312.559 77.5497 311.274 76.2207C309.997 74.9001 308.373 74.2353 306.414 74.2353Z" fill="#462F56"/>
<path d="M325.975 60.5127H332.714C336.358 60.5127 338.981 60.8448 340.59 61.5168C342.2 62.1889 343.475 63.2788 344.404 64.778C345.332 66.2769 345.797 68.077 345.797 70.1791C345.797 72.5042 345.186 74.4359 343.962 75.9734C342.748 77.5114 341.093 78.5852 338.996 79.188C337.765 79.5354 335.529 79.7053 332.289 79.7053V93.7991H325.975V60.5127ZM332.289 73.5392H334.324C335.924 73.5392 337.031 73.4238 337.658 73.1998C338.285 72.9673 338.771 72.597 339.135 72.0717C339.492 71.5463 339.669 70.9124 339.669 70.1629C339.669 68.8727 339.166 67.9298 338.161 67.3427C337.433 66.9028 336.072 66.6783 334.09 66.6783H332.289V73.5392Z" fill="#462F56"/>
<path d="M351.361 59.6797H357.535V71.7026C358.742 70.6591 359.95 69.8789 361.172 69.361C362.386 68.8437 363.625 68.5806 364.868 68.5806C367.306 68.5806 369.364 69.423 371.036 71.115C372.467 72.5751 373.178 74.7233 373.178 77.5512V93.8008H367.098V83.0215C367.098 80.1782 366.965 78.2473 366.696 77.2423C366.425 76.2307 365.96 75.4812 365.303 74.9785C364.654 74.4842 363.84 74.2368 362.882 74.2368C361.635 74.2368 360.56 74.6545 359.662 75.4812C358.774 76.3079 358.154 77.4352 357.807 78.8647C357.628 79.6071 357.535 81.2911 357.535 83.9261V93.8008H351.361V59.6797Z" fill="#462F56"/>
<path d="M397.416 69.1818H403.588V93.7994H397.416V91.1795C396.208 92.3231 394.994 93.1424 393.778 93.6446C392.565 94.1465 391.242 94.4016 389.826 94.4016C386.63 94.4016 383.875 93.1735 381.548 90.7084C379.219 88.2517 378.059 85.1914 378.059 81.5368C378.059 77.7431 379.188 74.6375 381.439 72.2105C383.69 69.7921 386.422 68.5791 389.641 68.5791C391.126 68.5791 392.51 68.8579 393.81 69.4058C395.108 69.9548 396.309 70.7896 397.416 71.886V69.1818ZM390.907 74.2353C388.99 74.2353 387.396 74.9073 386.134 76.2593C384.866 77.604 384.232 79.3348 384.232 81.4439C384.232 83.569 384.874 85.3153 386.166 86.6906C387.457 88.0578 389.043 88.7454 390.93 88.7454C392.874 88.7454 394.49 88.0735 395.767 86.7214C397.052 85.3773 397.693 83.6081 397.693 81.4213C397.693 79.2811 397.052 77.5497 395.767 76.2207C394.49 74.9001 392.866 74.2353 390.907 74.2353Z" fill="#462F56"/>
<path d="M408.378 69.1818H413.715V72.3114C414.289 71.091 415.046 70.1632 415.99 69.5298C416.942 68.896 417.979 68.5791 419.1 68.5791C419.897 68.5791 420.732 68.788 421.606 69.2135L419.688 74.5447C418.967 74.181 418.374 74.0031 417.908 74.0031C416.965 74.0031 416.159 74.5904 415.511 75.7651C414.853 76.9395 414.529 79.242 414.529 82.6729L414.552 83.8709V93.7994H408.378V69.1818Z" fill="#462F56"/>
<path d="M424.617 69.1818H430.791V72.0568C431.851 70.8896 433.027 70.0166 434.327 69.4444C435.618 68.8653 437.034 68.5791 438.566 68.5791C440.105 68.5791 441.505 68.9579 442.743 69.7157C443.989 70.4722 444.986 71.5847 445.745 73.0373C446.728 71.5847 447.933 70.4722 449.366 69.7157C450.796 68.9579 452.367 68.5791 454.061 68.5791C455.817 68.5791 457.366 68.989 458.695 69.8001C460.033 70.6113 460.986 71.6777 461.573 72.9835C462.153 74.297 462.448 76.4296 462.448 79.3811V93.7994H456.274V81.3594C456.274 78.5778 455.925 76.6924 455.222 75.7109C454.517 74.7295 453.457 74.2353 452.058 74.2353C450.983 74.2353 450.022 74.5365 449.179 75.1398C448.329 75.7345 447.695 76.5687 447.284 77.6271C446.875 78.6863 446.667 80.3855 446.667 82.7346V93.7994H440.491V81.923C440.491 79.7285 440.329 78.1373 439.996 77.156C439.672 76.1674 439.176 75.4406 438.526 74.954C437.87 74.4748 437.072 74.2353 436.145 74.2353C435.107 74.2353 434.163 74.5365 433.32 75.1469C432.47 75.7571 431.843 76.6075 431.418 77.7045C430.999 78.8015 430.791 80.5323 430.791 82.8894V93.7994H424.617V69.1818Z" fill="#462F56"/>
<path d="M486.538 69.1818H492.712V93.7994H486.538V91.1795C485.331 92.3231 484.117 93.1424 482.901 93.6446C481.687 94.1465 480.364 94.4016 478.949 94.4016C475.753 94.4016 472.999 93.1735 470.671 90.7084C468.342 88.2517 467.183 85.1914 467.183 81.5368C467.183 77.7431 468.311 74.6375 470.561 72.2105C472.814 69.7921 475.544 68.5791 478.763 68.5791C480.248 68.5791 481.632 68.8579 482.932 69.4058C484.232 69.9548 485.432 70.7896 486.538 71.886V69.1818ZM480.032 74.2353C478.113 74.2353 476.519 74.9073 475.258 76.2593C473.99 77.604 473.355 79.3348 473.355 81.4439C473.355 83.569 473.996 85.3153 475.29 86.6906C476.581 88.0578 478.166 88.7454 480.055 88.7454C481.996 88.7454 483.614 88.0735 484.891 86.7214C486.174 85.3773 486.816 83.6081 486.816 81.4213C486.816 79.2811 486.174 77.5497 484.891 76.2207C483.614 74.9001 481.988 74.2353 480.032 74.2353Z" fill="#462F56"/>
</svg>
