<svg width="20" height="20" viewBox="0 0 20 20" fill="none" xmlns="http://www.w3.org/2000/svg">
<path fill-rule="evenodd" clip-rule="evenodd" d="M0.115234 8.36182C0.115234 9.50592 0.578084 10.6714 0.958784 11.4335C1.6387 12.7893 2.48358 14.1164 3.49478 15.2505C3.66709 15.4435 4.01306 15.8903 4.1954 16.0292C4.39977 16.1862 4.50663 16.3131 4.70633 16.4727C6.14832 17.6369 7.1575 18.439 8.87065 19.2331C9.63873 19.5904 10.9425 20.0486 12.0151 19.9264C13.1525 19.7962 14.139 19.4215 14.9471 18.9426C15.593 18.5592 16.7818 17.5954 16.7818 16.8147C16.7818 15.6986 16.5708 14.9873 15.5783 14.3395C14.6005 13.7016 12.5881 12.8447 11.6711 14.1398C10.2752 16.106 8.95547 15.6345 7.48143 14.2707C7.28641 14.0923 7.19958 13.9835 6.98586 13.8118C6.74207 13.6188 5.41697 12.1882 5.14848 11.7814C5.00622 11.5644 4.90136 11.4174 4.79516 11.1803C4.34701 10.1832 4.79717 9.22741 5.5392 8.67439C6.23781 8.15477 6.60983 7.90565 6.60983 6.92985C6.60983 6.03888 6.09489 5.03571 5.7222 4.47535C5.07969 3.5069 3.77195 2.89578 2.74072 3.44345C1.17986 4.26897 0.115234 6.85438 0.115234 8.36182ZM11.0981 0.101311L11.1007 1.34493C11.1542 1.61409 11.1876 1.43843 11.3372 1.43843C12.8606 1.43843 14.2238 1.7991 15.3679 2.5645C15.5563 2.6914 15.7099 2.79159 15.8749 2.91782C16.6576 3.51425 17.3556 4.40722 17.8011 5.29018C18.4255 6.53513 18.5003 7.42743 18.5003 8.84003H19.8849C19.8849 7.09616 19.7834 6.26664 19.0574 4.69976C18.7748 4.09064 18.0362 3.0534 17.582 2.59589L17.055 2.11835C16.9315 1.99946 16.9041 1.97809 16.7752 1.87323L16.1707 1.42842C14.7601 0.541453 13.2727 0.0532227 11.3846 0.0532227C11.221 0.0532227 11.2837 0.0819422 11.0981 0.101311ZM16.0178 8.6263V9.6041H17.4017L17.4077 8.73918C17.4077 8.73183 17.3997 8.60226 17.3997 8.60092C17.3569 8.43595 17.4297 8.55618 17.3115 8.45666C17.5473 7.76739 16.5848 5.69692 15.9804 5.00832C15.7172 4.71111 15.4962 4.4306 15.1909 4.17413C14.5451 3.63046 13.9907 3.30052 13.1525 2.96524C12.7872 2.8183 12.3076 2.69608 11.8615 2.63463C11.6237 2.6019 11.3726 2.6019 11.1188 2.56383C10.7374 2.50706 10.6953 2.58387 10.3814 2.58387V3.96841C10.8323 3.96841 10.6426 3.85955 11.5636 3.9811C12.5421 4.10734 13.5165 4.57152 14.2365 5.17597C14.9972 5.81781 15.4614 6.57988 15.772 7.50892C15.9049 7.90298 15.937 8.1895 16.0178 8.6263ZM10.4776 5.18932C10.4415 5.12053 10.5063 5.11853 10.2425 5.11051C9.27205 5.07445 9.52252 5.01634 9.52252 6.54715C9.79435 6.54715 9.57995 6.56251 9.66611 6.47168C10.3467 6.62196 10.5177 6.3548 11.6083 6.89713C12.1654 7.17497 12.5421 7.52294 12.876 8.01719C13.3061 8.65502 13.3776 9.02303 13.4484 9.78844C13.4851 10.1865 13.4203 10.0863 13.4337 10.2747C13.4504 10.5345 13.5833 10.4697 13.8658 10.465C14.7528 10.4497 14.7748 10.5826 14.8416 10.2426C15.0139 9.37301 14.4997 7.8649 13.9293 7.10751C13.5212 6.56051 12.9555 6.01751 12.325 5.70293C11.9536 5.51926 11.0293 5.07311 10.4776 5.18932Z" fill="white"/>
</svg>
